<svg width="130" height="37" viewBox="0 0 130 37" fill="none" xmlns="http://www.w3.org/2000/svg">
<g clip-path="url(#clip0)">
<rect x="7.1709" y="5.82617" width="116.528" height="25.0983" fill="white"/>
<path d="M128.431 6.27456C128.396 6.2721 128.36 6.2721 128.324 6.27456V5.13618C128.323 4.28707 127.984 3.47314 127.384 2.87315C126.783 2.27315 125.968 1.93615 125.119 1.93615H21.9341C21.9662 1.81626 21.9827 1.69275 21.9834 1.56864C21.9834 1.36264 21.9428 1.15866 21.864 0.968348C21.7852 0.778032 21.6696 0.605106 21.5239 0.459444C21.3783 0.313783 21.2054 0.198237 21.015 0.119406C20.8247 0.0405741 20.6207 0 20.4147 0L8.87851 0C8.46285 0.00118256 8.06455 0.166829 7.77062 0.460751C7.4767 0.754672 7.31106 1.15298 7.30987 1.56864C7.31274 1.69258 7.32927 1.81583 7.35917 1.93615H5.25719C4.40808 1.93615 3.59368 2.27315 2.99285 2.87315C2.39201 3.47314 2.05387 4.28707 2.05269 5.13618V15.3279C1.89764 15.2706 1.73393 15.2403 1.56865 15.2382C1.36227 15.2382 1.15793 15.2789 0.967318 15.3581C0.776709 15.4372 0.603584 15.5531 0.457863 15.6993C0.312143 15.8454 0.196691 16.0188 0.118123 16.2097C0.0395557 16.4005 -0.000583238 16.605 6.4032e-06 16.8113V28.3476C0.00118896 28.7633 0.166836 29.1616 0.460757 29.4555C0.754678 29.7494 1.15298 29.915 1.56865 29.9162C1.73347 29.9134 1.89682 29.8847 2.05269 29.8311V31.8658C2.05387 32.7153 2.39187 33.5297 2.99257 34.1304C3.59328 34.7311 4.40767 35.0691 5.25719 35.0703H108.68C108.658 35.1704 108.648 35.2727 108.649 35.3751C108.649 35.7911 108.814 36.1901 109.108 36.4843C109.402 36.7785 109.801 36.9437 110.217 36.9437H121.749C122.165 36.9437 122.564 36.7785 122.858 36.4843C123.152 36.1901 123.318 35.7911 123.318 35.3751C123.318 35.2727 123.308 35.1704 123.286 35.0703H125.119C125.969 35.0691 126.783 34.7311 127.384 34.1304C127.985 33.5297 128.323 32.7153 128.324 31.8658V21.0646H128.431C128.847 21.0634 129.245 20.8978 129.539 20.6039C129.833 20.3099 129.999 19.9116 130 19.496V7.8432C129.998 7.4279 129.832 7.03028 129.538 6.73661C129.244 6.44294 128.847 6.27692 128.431 6.27456ZM16.5828 19.6215H19.9531V22.0282H19.1957C19.1788 22.0978 19.1392 22.1598 19.0833 22.2044C19.0273 22.249 18.958 22.2737 18.8864 22.2747H17.636C17.5644 22.2737 17.4952 22.249 17.4392 22.2044C17.3832 22.1598 17.3437 22.0978 17.3268 22.0282H16.5828V19.6215ZM14.7273 24.3812C14.7265 24.4615 14.6957 24.5387 14.641 24.5975C14.5863 24.6564 14.5116 24.6927 14.4315 24.6994V25.0579H12.7194V28.0428H9.34911V21.8579H9.31773C9.23096 21.8579 9.14774 21.8234 9.08639 21.7621C9.02503 21.7007 8.99056 21.6175 8.99056 21.5307V20.2893C8.99056 20.2025 9.02503 20.1193 9.08639 20.0579C9.14774 19.9965 9.23096 19.9621 9.31773 19.9621H9.34911V19.617H12.7194V22.4809H14.4315V22.8036C14.5116 22.8103 14.5863 22.8466 14.641 22.9054C14.6957 22.9643 14.7265 23.0414 14.7273 23.1218V24.3812ZM20.2489 25.6271C20.249 25.7109 20.217 25.7915 20.1595 25.8523C20.102 25.9132 20.0233 25.9497 19.9397 25.9543V28.0428H16.5828V25.0579H14.8797V22.4853H16.5828H19.9531V24.063C20.0364 24.0664 20.115 24.1019 20.1727 24.1621C20.2303 24.2222 20.2624 24.3023 20.2624 24.3856L20.2489 25.6271ZM107.685 19.6215H109.805V21.961H107.703L107.685 19.6215ZM84.1509 12.1234C84.1509 12.0366 84.1853 11.9534 84.2467 11.892C84.3081 11.8307 84.3913 11.7962 84.4781 11.7962V11.4332H87.8439V14.3867H89.2781C90.7168 14.3867 91.5549 13.7637 91.5549 12.6836C91.5549 11.6035 90.7168 10.985 89.2781 10.985H87.1627C87.1519 11.0606 87.1143 11.1299 87.0567 11.1801C86.9991 11.2303 86.9253 11.258 86.8489 11.2584H85.603C85.5261 11.2582 85.4517 11.2306 85.3934 11.1804C85.3351 11.1303 85.2965 11.061 85.2848 10.985H84.496V8.51548H89.5694C92.4916 8.51548 94.4725 9.70317 94.8938 11.8276H94.9521C94.9951 11.8276 95.0376 11.836 95.0773 11.8525C95.117 11.8689 95.1531 11.893 95.1834 11.9234C95.2138 11.9538 95.2379 11.9898 95.2544 12.0295C95.2708 12.0692 95.2793 12.1118 95.2793 12.1547V13.4052C95.2793 13.4919 95.2448 13.5751 95.1834 13.6365C95.1221 13.6979 95.0389 13.7323 94.9521 13.7323C94.9254 13.7365 94.8981 13.7365 94.8714 13.7323C94.4232 15.776 92.4378 16.9234 89.5694 16.9234H84.4781V13.701C84.3913 13.701 84.3081 13.6665 84.2467 13.6051C84.1853 13.5438 84.1509 13.4606 84.1509 13.3738V12.1234ZM81.0629 8.51548H83.1604V10.8371H81.0629V8.51548ZM83.3038 14.5704V16.892H77.5715V14.5525L83.3038 14.5704ZM73.502 12.1234C73.502 12.0366 73.5365 11.9534 73.5979 11.892C73.6592 11.8307 73.7424 11.7962 73.8292 11.7962V8.51548H80.6058V8.77094C80.6846 8.78074 80.7572 8.81888 80.8099 8.87826C80.8627 8.93764 80.8921 9.01419 80.8926 9.09364V10.3082C80.892 10.3872 80.8624 10.4631 80.8096 10.5218C80.7567 10.5804 80.6842 10.6177 80.6058 10.6264V10.8012H77.1054V11.5766H80.6237V11.6662C80.6985 11.6779 80.7667 11.716 80.816 11.7735C80.8653 11.831 80.8924 11.9042 80.8926 11.9799V13.2304C80.8926 13.3066 80.8656 13.3804 80.8164 13.4387C80.7671 13.4969 80.6989 13.5359 80.6237 13.5486V13.6606H77.1054V14.5346V14.7228C77.1835 14.7325 77.2555 14.77 77.3082 14.8284C77.3609 14.8869 77.3907 14.9624 77.3923 15.041V16.2915C77.3917 16.3704 77.3621 16.4464 77.3093 16.505C77.2564 16.5637 77.1839 16.6009 77.1054 16.6097V16.8562H73.8203V13.6965C73.7335 13.6965 73.6503 13.662 73.5889 13.6006C73.5275 13.5393 73.4931 13.4561 73.4931 13.3693L73.502 12.1234ZM76.4018 22.2254L75.2948 22.808C75.2346 22.8392 75.1661 22.8503 75.0992 22.8398C75.0323 22.8294 74.9705 22.7978 74.9228 22.7498L74.4029 23.0277C74.1747 22.6701 73.8569 22.3785 73.481 22.182C73.1052 21.9854 72.6844 21.8907 72.2606 21.9072C71.0863 21.9072 70.2662 22.5257 70.1451 23.561H69.4146C69.394 23.6261 69.3536 23.6832 69.2989 23.7242C69.2443 23.7652 69.1782 23.7881 69.1098 23.7896H67.8594C67.7903 23.789 67.7232 23.7666 67.6677 23.7255C67.6121 23.6844 67.571 23.6269 67.5502 23.561H66.7121C66.8555 20.836 69.0919 19.3301 72.3099 19.3301C74.5732 19.3301 76.3883 20.3161 77.1099 21.5711L76.5676 21.8579C76.5851 21.9299 76.5773 22.0057 76.5455 22.0727C76.5136 22.1396 76.4597 22.1935 76.3928 22.2254H76.4018ZM70.2303 8.51548H72.9194V8.77094C73.0018 8.77553 73.0794 8.81154 73.1361 8.87157C73.1928 8.9316 73.2243 9.01107 73.2242 9.09364V10.3082C73.2232 10.39 73.1911 10.4684 73.1346 10.5274C73.078 10.5865 73.0011 10.6219 72.9194 10.6264V10.9312H70.2303V8.51548ZM58.9944 8.51548H62.3468V10.8012H61.6252C61.6155 10.8793 61.578 10.9513 61.5196 11.004C61.4611 11.0566 61.3856 11.0865 61.307 11.0881H60.0565C59.9779 11.0865 59.9024 11.0566 59.844 11.004C59.7855 10.9513 59.748 10.8793 59.7383 10.8012H58.9944V8.51548ZM58.9944 11.2673H62.3468V13.2573C62.4276 13.2629 62.5034 13.2987 62.5591 13.3577C62.6147 13.4167 62.6461 13.4944 62.647 13.5755V14.8304C62.6461 14.9114 62.6147 14.9892 62.5591 15.0481C62.5034 15.1071 62.4276 15.143 62.3468 15.1486V16.892H58.9944V11.2673ZM60.5406 22.3957V22.6781C60.6215 22.6837 60.6973 22.7195 60.7529 22.7785C60.8085 22.8375 60.8399 22.9152 60.8409 22.9963V24.2467C60.84 24.3282 60.8088 24.4065 60.7532 24.4662C60.6977 24.5259 60.6218 24.5627 60.5406 24.5694V25.049C58.0577 24.7935 55.9691 24.1526 55.9691 22.2747C55.9691 20.3968 58.0263 19.3481 60.8185 19.3481C62.5048 19.3091 64.1711 19.7206 65.6454 20.5402L64.1171 22.4092C63.1187 21.8382 61.9814 21.5558 60.8319 21.5935C60.0969 21.5935 59.2767 21.6652 59.2767 21.9879C59.2767 22.1985 59.6935 22.2971 60.5406 22.3778V22.3957ZM46.9741 8.51548H50.5192L54.275 12.5491V8.51548H57.5064V11.7738C57.584 11.7836 57.6555 11.8212 57.7074 11.8798C57.7594 11.9383 57.7883 12.0137 57.7887 12.092V13.3424C57.7873 13.4204 57.7581 13.4953 57.7063 13.5537C57.6546 13.612 57.5837 13.6499 57.5064 13.6606V16.892H54.5618L50.1965 12.3161V12.3385L46.9741 8.96366V8.51548ZM46.9741 9.63146L47.9825 10.6847C48.0458 10.6434 48.1215 10.6252 48.1967 10.6334C48.2718 10.6416 48.3419 10.6755 48.3948 10.7295L49.2419 11.6528C49.2905 11.7045 49.3204 11.7709 49.3269 11.8416C49.3334 11.9122 49.3161 11.983 49.2777 12.0427L50.1965 12.9973V16.8875H46.9651L46.9741 9.63146ZM40.6547 14.5615C41.8065 14.4853 42.2816 13.6651 42.2816 12.6612V8.51548H45.634V10.4292C45.7172 10.4327 45.7959 10.4682 45.8535 10.5284C45.9112 10.5885 45.9433 10.6686 45.9433 10.7519V12.0023C45.9433 12.0856 45.9112 12.1658 45.8535 12.2259C45.7959 12.286 45.7172 12.3216 45.634 12.325V12.9435C45.634 15.5161 43.8413 17.1161 40.6547 17.1744V14.5615ZM35.039 9.22361C35.0398 9.14208 35.0711 9.0638 35.1266 9.0041C35.1822 8.94441 35.258 8.90761 35.3392 8.90092V8.51548H38.6917V12.6791C38.6917 13.6606 39.1398 14.4718 40.2065 14.5704V15.0186C40.2756 15.0372 40.3367 15.078 40.3804 15.1347C40.4241 15.1913 40.4481 15.2608 40.4485 15.3323V16.5828C40.4471 16.6536 40.4227 16.722 40.3791 16.7777C40.3354 16.8335 40.2749 16.8736 40.2065 16.892V17.1878C37.1051 17.0982 35.3392 15.5027 35.3392 12.9615V10.7967C35.2584 10.7891 35.1831 10.752 35.1277 10.6925C35.0724 10.633 35.0408 10.5553 35.039 10.474V9.22361ZM26.5235 26.017C26.5226 26.0919 26.4958 26.1641 26.4476 26.2213C26.3993 26.2786 26.3327 26.3172 26.2591 26.3308V26.7207H24.5829L23.9957 28.0652H20.5044L23.1083 22.8304L23.0142 22.8036C22.9748 22.7841 22.9398 22.757 22.9111 22.7237C22.8825 22.6904 22.8608 22.6517 22.8474 22.6099C22.834 22.5681 22.8292 22.524 22.8332 22.4803C22.8372 22.4365 22.85 22.3941 22.8708 22.3554L23.4355 21.2394C23.4549 21.2 23.4821 21.165 23.5154 21.1363C23.5486 21.1077 23.5873 21.086 23.6292 21.0726C23.671 21.0592 23.7151 21.0544 23.7588 21.0584C23.8025 21.0624 23.845 21.0752 23.8837 21.096C23.9079 21.1098 23.9304 21.1264 23.9509 21.1453L24.6994 19.6349H24.7263L25.0714 20.3923C25.1461 20.3655 25.228 20.3671 25.3016 20.3968C25.3752 20.4266 25.4353 20.4824 25.4703 20.5537L25.9946 21.6652C26.0335 21.7449 26.0393 21.8367 26.0107 21.9206C25.9822 22.0046 25.9216 22.0738 25.8422 22.1134L26.2456 23.0097L25.5016 24.6725H26.2546V24.9011C26.3282 24.9146 26.3948 24.9532 26.4431 25.0105C26.4913 25.0677 26.5182 25.1399 26.519 25.2148L26.5235 26.017ZM29.0109 28.0428L28.4193 26.6983H26.6983V24.6725H27.496L26.4966 22.4316L25.2193 19.5946H28.3566L29.7683 22.436C29.8073 22.4154 29.85 22.4029 29.8939 22.3992C29.9379 22.3955 29.9821 22.4007 30.0239 22.4145C30.0658 22.4283 30.1044 22.4505 30.1375 22.4796C30.1706 22.5087 30.1975 22.5442 30.2165 22.5839L30.7499 23.7537C30.7714 23.792 30.785 23.8342 30.7896 23.8779C30.7943 23.9216 30.79 23.9658 30.777 24.0077C30.764 24.0497 30.7425 24.0886 30.714 24.122C30.6854 24.1553 30.6504 24.1825 30.6109 24.2019L32.5381 28.0787L29.0109 28.0428ZM36.751 21.3066C36.7506 21.3837 36.7221 21.458 36.671 21.5157C36.6199 21.5734 36.5496 21.6106 36.4732 21.6204V21.9296V23.6148V23.8792C36.5504 23.891 36.6208 23.93 36.6718 23.9891C36.7227 24.0483 36.7508 24.1238 36.751 24.2019V25.0041C36.7498 25.0815 36.7212 25.1559 36.6703 25.2141C36.6195 25.2724 36.5496 25.3107 36.4732 25.3223V25.7392V28.0473H33.1028V24.4842C33.079 24.4868 33.0549 24.4868 33.0311 24.4842C32.9451 24.4843 32.8626 24.4504 32.8013 24.39C32.7401 24.3296 32.7051 24.2475 32.7039 24.1616V22.9066C32.7051 22.8206 32.7401 22.7386 32.8013 22.6782C32.8626 22.6178 32.9451 22.5839 33.0311 22.5839C33.0549 22.5814 33.079 22.5814 33.1028 22.5839V19.6215H36.4507V19.7201C36.5272 19.7317 36.5971 19.7701 36.6479 19.8283C36.6988 19.8866 36.7274 19.9609 36.7286 20.0383L36.751 21.3066ZM39.8883 28.0294L37.997 25.7212H36.8989V23.6148H38.8709C39.5208 23.6148 39.9779 23.3996 39.9779 22.7722C39.9779 22.1447 39.5298 21.9296 38.8709 21.9296H36.8989V19.6215H39.1398C41.1074 19.6215 42.7567 20.3072 43.2273 21.7772H43.2542C43.3409 21.7772 43.4242 21.8117 43.4855 21.873C43.5469 21.9344 43.5813 22.0176 43.5813 22.1044V23.3503C43.5813 23.4371 43.5469 23.5203 43.4855 23.5817C43.4242 23.643 43.3409 23.6775 43.2542 23.6775C43.2363 23.6801 43.2182 23.6801 43.2004 23.6775C43.04 24.0859 42.7894 24.4528 42.4673 24.7509C42.1453 25.0489 41.76 25.2703 41.3404 25.3985L43.6306 28.0563L39.8883 28.0294ZM55.391 24.2781C55.3894 24.3567 55.3596 24.4322 55.3069 24.4907C55.2542 24.5491 55.1822 24.5866 55.1041 24.5963C54.7232 26.7924 52.7153 28.0294 49.7259 28.0294H44.5853V22.5884H47.9556V25.5464H49.3988C50.8419 25.5464 51.6845 24.919 51.6845 23.8344C51.6845 22.7498 50.8419 22.1268 49.3988 22.1268H47.1265C47.1056 22.1927 47.0645 22.2503 47.009 22.2913C46.9534 22.3324 46.8863 22.3548 46.8172 22.3554H45.5668C45.4983 22.3545 45.4319 22.332 45.3771 22.2909C45.3223 22.2498 45.282 22.1923 45.262 22.1268H44.5853V19.6215H49.6856C52.5181 19.6215 54.4677 20.733 54.9876 22.7184H55.019C55.0619 22.7184 55.1045 22.7269 55.1442 22.7433C55.1839 22.7598 55.2199 22.7838 55.2503 22.8142C55.2807 22.8446 55.3048 22.8807 55.3212 22.9204C55.3377 22.9601 55.3461 23.0026 55.3461 23.0456L55.391 24.2781ZM66.2953 25.7661C66.2941 25.852 66.2591 25.9341 66.1979 25.9945C66.1366 26.0549 66.0541 26.0887 65.9681 26.0887H65.9098C65.4616 27.4736 63.8885 28.3297 61.2263 28.3297C59.2264 28.4073 57.2517 27.8624 55.5747 26.77L57.1882 24.9145C58.3938 25.6778 59.795 26.0748 61.2218 26.0574C62.2123 26.0574 62.6784 25.9139 62.6784 25.6092C62.6784 25.3044 62.3602 25.1879 60.9843 25.0714V22.4092H61.0694C63.3955 22.6064 65.1838 22.9918 65.7754 24.2019C65.8196 24.1785 65.8688 24.1662 65.9188 24.166C66.0048 24.166 66.0873 24.1999 66.1486 24.2603C66.2098 24.3207 66.2448 24.4027 66.246 24.4887L66.2953 25.7661ZM66.3311 15.1396C66.2443 15.1396 66.1611 15.1052 66.0998 15.0438C66.0384 14.9824 66.0039 14.8992 66.0039 14.8125V13.5575C66.0051 13.4715 66.0401 13.3895 66.1013 13.3291C66.1626 13.2687 66.2451 13.2348 66.3311 13.2348H66.4118V10.9491H63.2521V8.51548H69.7821V8.77991C69.8521 8.7977 69.9141 8.83811 69.9587 8.89485C70.0033 8.95159 70.0279 9.02148 70.0286 9.09364V10.3082C70.0277 10.3798 70.0029 10.449 69.9583 10.505C69.9137 10.561 69.8517 10.6006 69.7821 10.6175V10.9312V16.8741H66.4342V15.1217C66.4005 15.1311 66.366 15.1371 66.3311 15.1396ZM72.1575 28.3341C69.0202 28.3341 66.7793 26.7969 66.6762 24.0092H70.1048C70.1855 25.1027 71.0012 25.7571 72.2292 25.7571C72.6628 25.7764 73.0938 25.6809 73.4786 25.4802C73.8634 25.2795 74.1885 24.9808 74.4208 24.6142L77.1099 26.0484C76.4063 27.3705 74.5642 28.3341 72.1799 28.3341H72.1575ZM82.6495 26.017C82.6483 26.0892 82.6229 26.1589 82.5774 26.215C82.5319 26.2711 82.4689 26.3102 82.3985 26.3263V26.7207H80.7357L80.1486 28.0652H76.6572L79.2657 22.8215H79.2029C79.1636 22.802 79.1285 22.7749 79.0998 22.7416C79.0712 22.7083 79.0495 22.6696 79.0361 22.6278C79.0228 22.586 79.0179 22.5419 79.0219 22.4982C79.026 22.4545 79.0387 22.412 79.0595 22.3733L79.6242 21.2573C79.6437 21.218 79.6708 21.1829 79.7041 21.1542C79.7374 21.1256 79.7761 21.1039 79.8179 21.0905C79.8597 21.0772 79.9038 21.0723 79.9475 21.0763C79.9913 21.0804 80.0337 21.0931 80.0724 21.1139C80.0724 21.1139 80.0993 21.1363 80.1127 21.1453L80.8522 19.6528L81.2108 20.4461C81.2844 20.4227 81.3639 20.426 81.4352 20.4555C81.5066 20.4851 81.5652 20.5389 81.6007 20.6075L82.143 21.7369C82.1643 21.7757 82.1774 21.8185 82.1814 21.8626C82.1854 21.9066 82.1804 21.9511 82.1665 21.9931C82.1526 22.0352 82.1302 22.0739 82.1008 22.1069C82.0713 22.1399 82.0353 22.1665 81.9951 22.1851L82.3895 23.0814L81.6455 24.7397H82.394V24.9683C82.4648 24.9852 82.5279 25.0253 82.5733 25.0821C82.6188 25.1389 82.644 25.2093 82.645 25.282L82.6495 26.017ZM85.1548 28.0428L84.5632 26.6983H82.8691V24.6725H83.6713L82.6719 22.4316V22.4585L81.3945 19.617H84.5318L85.957 22.4809L85.9839 22.4585C86.0228 22.4372 86.0655 22.4241 86.1096 22.4201C86.1537 22.416 86.1982 22.4211 86.2402 22.435C86.2822 22.4489 86.321 22.4712 86.354 22.5007C86.387 22.5302 86.4136 22.5662 86.4321 22.6064L86.9475 23.7537C86.9694 23.7927 86.9828 23.8358 86.9869 23.8802C86.9909 23.9247 86.9856 23.9695 86.9713 24.0118C86.9569 24.054 86.9338 24.0928 86.9034 24.1256C86.8731 24.1583 86.8362 24.1843 86.7952 24.2019L88.7134 28.0652L85.1548 28.0428ZM92.9129 21.3201C92.9118 21.3967 92.8838 21.4706 92.8339 21.5288C92.7839 21.5869 92.7151 21.6257 92.6395 21.6383V21.9206V23.7134V23.8568C92.7151 23.8694 92.7839 23.9081 92.8339 23.9663C92.8838 24.0245 92.9118 24.0983 92.9129 24.175V24.9772C92.9118 25.0539 92.8838 25.1278 92.8339 25.1859C92.7839 25.2441 92.7151 25.2829 92.6395 25.2955V25.8333V28.0204H89.2781V24.4932H89.2422C89.1562 24.4932 89.0737 24.4594 89.0125 24.399C88.9512 24.3386 88.9162 24.2565 88.9151 24.1705V22.9156C88.9162 22.8296 88.9512 22.7475 89.0125 22.6872C89.0737 22.6268 89.1562 22.5929 89.2422 22.5929H89.2781V19.6215H92.6619V19.7649C92.7375 19.7756 92.8068 19.8133 92.857 19.8709C92.9072 19.9285 92.935 20.0022 92.9353 20.0786L92.9129 21.3201ZM99.6849 23.3414C99.6849 23.4282 99.6504 23.5114 99.5891 23.5727C99.5277 23.6341 99.4445 23.6686 99.3577 23.6686C99.3414 23.6706 99.3248 23.6706 99.3084 23.6686C98.8602 25.152 97.3588 25.8602 95.2255 25.8602H93.0876V23.7537H94.9476C95.5751 23.7537 96.0457 23.5027 96.0457 22.8573C96.0457 22.212 95.5975 21.961 94.9476 21.961H93.0876V19.6215H95.2255C97.3454 19.6215 98.8603 20.3206 99.3039 21.7817H99.3577C99.4009 21.7811 99.4437 21.7891 99.4836 21.8054C99.5236 21.8216 99.5599 21.8457 99.5904 21.8762C99.6209 21.9067 99.645 21.943 99.6612 21.983C99.6775 22.0229 99.6855 22.0657 99.6849 22.1089V23.3414ZM103.992 27.4154C103.991 27.492 103.963 27.5659 103.913 27.6241C103.863 27.6822 103.794 27.721 103.719 27.7336V28.0339H100.393V19.6215H107.219V19.7738C107.294 19.7866 107.362 19.8255 107.412 19.8837C107.461 19.942 107.488 20.0158 107.488 20.0921V21.3425C107.487 21.418 107.459 21.4907 107.41 21.548C107.361 21.6054 107.293 21.6436 107.219 21.6562V21.961H103.71V22.7408H107.25C107.334 22.7454 107.413 22.7819 107.47 22.8428C107.528 22.9036 107.56 22.9842 107.559 23.068V24.3184C107.56 24.4017 107.527 24.4818 107.47 24.542C107.412 24.6021 107.333 24.6376 107.25 24.6411V24.8249H103.71V25.7212H103.741V25.8736C103.816 25.8852 103.885 25.9231 103.935 25.9805C103.985 26.0379 104.013 26.1112 104.014 26.1873L103.992 27.4154ZM109.895 28.0339H104.189V25.7078H109.917L109.895 28.0339ZM115.757 19.3212C117.443 19.2829 119.109 19.6944 120.584 20.5133L119.078 22.4092C118.079 21.8382 116.942 21.5558 115.793 21.5935C115.058 21.5935 114.237 21.6652 114.237 21.9879C114.237 22.3106 114.735 22.3374 115.761 22.436V22.696C115.842 22.7016 115.918 22.7375 115.974 22.7964C116.029 22.8554 116.061 22.9331 116.062 23.0142V24.2646C116.061 24.3462 116.029 24.4244 115.974 24.4841C115.918 24.5438 115.842 24.5806 115.761 24.5873V25.0938C113.166 24.8562 110.93 24.2288 110.93 22.2926C110.93 20.3565 112.987 19.3301 115.779 19.3301L115.757 19.3212ZM121.247 25.7705C121.247 25.8561 121.213 25.9382 121.152 25.9987C121.092 26.0592 121.01 26.0932 120.924 26.0932C120.884 26.0931 120.845 26.0855 120.808 26.0708C120.36 27.4647 118.786 28.3117 116.115 28.3117C114.135 28.3763 112.182 27.8302 110.522 26.7476L112.135 24.8921C113.341 25.6554 114.742 26.0524 116.169 26.035C117.155 26.035 117.626 25.8915 117.626 25.5868C117.626 25.282 117.339 25.1879 116.191 25.0714V22.4405C118.432 22.6422 120.171 23.0411 120.736 24.2691C120.783 24.2318 120.84 24.2086 120.9 24.2023C120.96 24.1961 121.021 24.2069 121.075 24.2337C121.129 24.2605 121.174 24.302 121.205 24.3535C121.237 24.405 121.253 24.4643 121.251 24.5246L121.247 25.7705Z" fill="#07A39D"/>
</g>
<defs>
<clipPath id="clip0">
<rect width="130" height="36.9437" fill="white"/>
</clipPath>
</defs>
</svg>
